<?xml version="1.0" encoding="UTF-8" standalone="no"?>
<svg
   class="ionicon"
   viewBox="0 0 512 512"
   version="1.1"
   id="svg3"
   sodipodi:docname="game-controller-outline.svg"
   inkscape:version="1.3 (0e150ed6c4, 2023-07-21)"
   xmlns:inkscape="http://www.inkscape.org/namespaces/inkscape"
   xmlns:sodipodi="http://sodipodi.sourceforge.net/DTD/sodipodi-0.dtd"
   xmlns="http://www.w3.org/2000/svg"
   xmlns:svg="http://www.w3.org/2000/svg">
  <defs
     id="defs3" />
  <sodipodi:namedview
     id="namedview3"
     pagecolor="#ffffff"
     bordercolor="#000000"
     borderopacity="0.25"
     inkscape:showpageshadow="2"
     inkscape:pageopacity="0.0"
     inkscape:pagecheckerboard="0"
     inkscape:deskcolor="#d1d1d1"
     inkscape:zoom="1.5839844"
     inkscape:cx="255.68434"
     inkscape:cy="246.53021"
     inkscape:window-width="1920"
     inkscape:window-height="1046"
     inkscape:window-x="-11"
     inkscape:window-y="-11"
     inkscape:window-maximized="1"
     inkscape:current-layer="svg3" />
  <path
     d="M 467.51,248.83 C 449.11,165.65 421.82,112.59 378.08,99.66 369.60864,97.188778 360.82434,95.956013 352,96 c -26.89,0 -48.11,16 -96,16 -47.89,0 -69.15,-16 -96,-16 -9.19254,-0.04759 -18.347,1.184222 -27.2,3.66 -43.8,12.93 -70.86,66.04 -89.47,149.17 -19,84.91 -15.56,152 21.58,164.88 26,9 49.25,-9.61 71.27,-37 25,-31.2 55.79,-40.8 119.82,-40.8 3.83667,0 7.54968,0.0345 11.14548,0.10598 56.41424,1.12203 83.97491,11.36352 107.51452,40.69402 22,27.41 46.11,45.79 71.42,37.16 41.02,-14.01 40.44,-79.13 21.43,-165.04 z"
     fill="none"
     stroke="currentColor"
     stroke-miterlimit="10"
     stroke-width="32"
     id="path1"
     sodipodi:nodetypes="cccscccccssccc"
     style="stroke:#f8d56f;stroke-opacity:1" />
  <circle
     cx="292"
     cy="224"
     r="20"
     id="circle1"
     style="stroke:#f8d56f;stroke-opacity:1" />
  <path
     d="M336 288a20 20 0 1120-19.95A20 20 0 01336 288z"
     id="path2"
     style="stroke:#f8d86f;stroke-opacity:1" />
  <circle
     cx="336"
     cy="180"
     r="20"
     id="circle2"
     style="stroke:#f8d56f;stroke-opacity:1" />
  <circle
     cx="380"
     cy="224"
     r="20"
     id="circle3"
     style="stroke:#f8d56f;stroke-opacity:1" />
  <path
     fill="none"
     stroke="currentColor"
     stroke-linecap="round"
     stroke-linejoin="round"
     stroke-width="32"
     d="M160 176v96M208 224h-96"
     id="path3"
     style="stroke:#f8d56f;stroke-opacity:1" />
</svg>
