<?xml version="1.0" encoding="UTF-8" standalone="no"?>
<svg
   class="ionicon"
   viewBox="0 0 512 512"
   version="1.1"
   id="svg1"
   sodipodi:docname="train-outline.svg"
   inkscape:version="1.3 (0e150ed6c4, 2023-07-21)"
   xmlns:inkscape="http://www.inkscape.org/namespaces/inkscape"
   xmlns:sodipodi="http://sodipodi.sourceforge.net/DTD/sodipodi-0.dtd"
   xmlns="http://www.w3.org/2000/svg"
   xmlns:svg="http://www.w3.org/2000/svg">
  <defs
     id="defs1" />
  <sodipodi:namedview
     id="namedview1"
     pagecolor="#ffffff"
     bordercolor="#000000"
     borderopacity="0.25"
     inkscape:showpageshadow="2"
     inkscape:pageopacity="0.0"
     inkscape:pagecheckerboard="0"
     inkscape:deskcolor="#d1d1d1"
     showgrid="false"
     inkscape:zoom="1.5839844"
     inkscape:cx="255.68434"
     inkscape:cy="205.49445"
     inkscape:window-width="1920"
     inkscape:window-height="1046"
     inkscape:window-x="-11"
     inkscape:window-y="-11"
     inkscape:window-maximized="1"
     inkscape:current-layer="svg1" />
  <path
     d="M344 48h-24a16 16 0 00-16-16h-96a16 16 0 00-16 16h-24a56.16 56.16 0 00-56 56v247c0 35.3 144 65 144 65s144-29.7 144-65V104a56 56 0 00-56-56zm-88 304a48 48 0 1148-48 48 48 0 01-48 48zm96-160a16 16 0 01-16 16H176a16 16 0 01-16-16v-64a16 16 0 0116-16h160a16 16 0 0116 16zM144 464h224M336 432l48 48M176 432l-48 48"
     fill="none"
     stroke="currentColor"
     stroke-linecap="round"
     stroke-linejoin="round"
     stroke-width="32"
     id="path1"
     style="stroke:#f8d568;stroke-opacity:1" />
</svg>
